<svg width="46" height="45" viewBox="0 0 46 45" fill="none" xmlns="http://www.w3.org/2000/svg">
<mask id="mask0_2_31" style="mask-type:alpha" maskUnits="userSpaceOnUse" x="0" y="0" width="46" height="45">
<rect x="0.5" width="45" height="45" fill="#D9D9D9"/>
</mask>
<g mask="url(#mask0_2_31)">
<path d="M11.4688 32.0625C13.0625 30.8438 14.8438 29.8828 16.8125 29.1797C18.7813 28.4766 20.8438 28.125 23 28.125C25.1562 28.125 27.2188 28.4766 29.1875 29.1797C31.1562 29.8828 32.9375 30.8438 34.5312 32.0625C35.625 30.7812 36.4766 29.3281 37.0859 27.7031C37.6953 26.0781 38 24.3438 38 22.5C38 18.3438 36.5391 14.8047 33.6172 11.8828C30.6953 8.96094 27.1562 7.5 23 7.5C18.8438 7.5 15.3047 8.96094 12.3828 11.8828C9.46094 14.8047 8 18.3438 8 22.5C8 24.3438 8.30469 26.0781 8.91406 27.7031C9.52344 29.3281 10.375 30.7812 11.4688 32.0625ZM23 24.375C21.1562 24.375 19.6016 23.7422 18.3359 22.4766C17.0703 21.2109 16.4375 19.6562 16.4375 17.8125C16.4375 15.9688 17.0703 14.4141 18.3359 13.1484C19.6016 11.8828 21.1562 11.25 23 11.25C24.8438 11.25 26.3984 11.8828 27.6641 13.1484C28.9297 14.4141 29.5625 15.9688 29.5625 17.8125C29.5625 19.6562 28.9297 21.2109 27.6641 22.4766C26.3984 23.7422 24.8438 24.375 23 24.375ZM23 41.25C20.4062 41.25 17.9688 40.7578 15.6875 39.7734C13.4062 38.7891 11.4219 37.4531 9.73438 35.7656C8.04687 34.0781 6.71094 32.0938 5.72656 29.8125C4.74219 27.5313 4.25 25.0938 4.25 22.5C4.25 19.9062 4.74219 17.4688 5.72656 15.1875C6.71094 12.9062 8.04687 10.9219 9.73438 9.23438C11.4219 7.54687 13.4062 6.21094 15.6875 5.22656C17.9688 4.24219 20.4062 3.75 23 3.75C25.5938 3.75 28.0313 4.24219 30.3125 5.22656C32.5938 6.21094 34.5781 7.54687 36.2656 9.23438C37.9531 10.9219 39.2891 12.9062 40.2734 15.1875C41.2578 17.4688 41.75 19.9062 41.75 22.5C41.75 25.0938 41.2578 27.5313 40.2734 29.8125C39.2891 32.0938 37.9531 34.0781 36.2656 35.7656C34.5781 37.4531 32.5938 38.7891 30.3125 39.7734C28.0313 40.7578 25.5938 41.25 23 41.25ZM23 37.5C24.6562 37.5 26.2188 37.2578 27.6875 36.7734C29.1562 36.2891 30.5 35.5938 31.7188 34.6875C30.5 33.7812 29.1562 33.0859 27.6875 32.6016C26.2188 32.1172 24.6562 31.875 23 31.875C21.3438 31.875 19.7812 32.1172 18.3125 32.6016C16.8438 33.0859 15.5 33.7812 14.2812 34.6875C15.5 35.5938 16.8438 36.2891 18.3125 36.7734C19.7812 37.2578 21.3438 37.5 23 37.5ZM23 20.625C23.8125 20.625 24.4844 20.3594 25.0156 19.8281C25.5469 19.2969 25.8125 18.625 25.8125 17.8125C25.8125 17 25.5469 16.3281 25.0156 15.7969C24.4844 15.2656 23.8125 15 23 15C22.1875 15 21.5156 15.2656 20.9844 15.7969C20.4531 16.3281 20.1875 17 20.1875 17.8125C20.1875 18.625 20.4531 19.2969 20.9844 19.8281C21.5156 20.3594 22.1875 20.625 23 20.625Z" fill="white"/>
</g>
</svg>
