<svg width="46" height="45" viewBox="0 0 46 45" fill="none" xmlns="http://www.w3.org/2000/svg">
<mask id="mask0_2_60" style="mask-type:alpha" maskUnits="userSpaceOnUse" x="0" y="0" width="46" height="45">
<rect x="0.5" width="45" height="45" fill="#D9D9D9"/>
</mask>
<g mask="url(#mask0_2_60)">
<path d="M22.7656 37.5C22.8906 37.5 23.0156 37.4688 23.1406 37.4062C23.2656 37.3438 23.3594 37.2812 23.4219 37.2188L38.7969 21.8438C39.1719 21.4688 39.4453 21.0469 39.6172 20.5781C39.7891 20.1094 39.875 19.6406 39.875 19.1719C39.875 18.6719 39.7891 18.1953 39.6172 17.7422C39.4453 17.2891 39.1719 16.8906 38.7969 16.5469L30.8281 8.57812C30.4844 8.20312 30.086 7.92969 29.6328 7.75781C29.1797 7.58594 28.7031 7.5 28.2031 7.5C27.7344 7.5 27.2656 7.58594 26.7969 7.75781C26.3281 7.92969 25.9063 8.20312 25.5313 8.57812L25.0156 9.09375L28.4844 12.6094C28.9531 13.0469 29.2969 13.5469 29.5156 14.1094C29.7344 14.6719 29.8438 15.2656 29.8438 15.8906C29.8438 17.2031 29.3985 18.3047 28.5078 19.1953C27.6172 20.0859 26.5156 20.5312 25.2031 20.5312C24.5781 20.5312 23.9766 20.4219 23.3984 20.2031C22.8203 19.9844 22.3125 19.6562 21.875 19.2188L18.3594 15.75L10.1563 23.9531C10.0625 24.0469 9.9922 24.1484 9.94532 24.2578C9.89845 24.3672 9.87501 24.4844 9.87501 24.6094C9.87501 24.8594 9.96876 25.0859 10.1563 25.2891C10.3438 25.4922 10.5625 25.5938 10.8125 25.5938C10.9375 25.5938 11.0625 25.5625 11.1875 25.5C11.3125 25.4375 11.4063 25.375 11.4688 25.3125L17.8438 18.9375L20.4688 21.5625L14.1406 27.9375C14.0469 28.0313 13.9766 28.1328 13.9297 28.2422C13.8828 28.3516 13.8594 28.4688 13.8594 28.5938C13.8594 28.8438 13.9531 29.0625 14.1406 29.25C14.3281 29.4375 14.5469 29.5312 14.7969 29.5312C14.9219 29.5312 15.0469 29.5 15.1719 29.4375C15.2969 29.375 15.3906 29.3125 15.4531 29.25L21.8281 22.9219L24.4531 25.5469L18.125 31.9219C18.0313 31.9844 17.9609 32.0781 17.9141 32.2031C17.8672 32.3281 17.8438 32.4531 17.8438 32.5781C17.8438 32.8281 17.9375 33.0469 18.125 33.2344C18.3125 33.4219 18.5313 33.5156 18.7813 33.5156C18.9063 33.5156 19.0235 33.4922 19.1328 33.4453C19.2422 33.3984 19.3438 33.3281 19.4375 33.2344L25.8125 26.9062L28.4375 29.5312L22.0625 35.9062C21.9688 36 21.8984 36.1016 21.8516 36.2109C21.8047 36.3203 21.7813 36.4375 21.7813 36.5625C21.7813 36.8125 21.8828 37.0312 22.0859 37.2188C22.2891 37.4062 22.5156 37.5 22.7656 37.5ZM22.7188 41.25C21.5625 41.25 20.5391 40.8672 19.6484 40.1016C18.7578 39.3359 18.2344 38.375 18.0781 37.2188C17.0156 37.0625 16.125 36.625 15.4063 35.9062C14.6875 35.1875 14.25 34.2969 14.0938 33.2344C13.0313 33.0781 12.1484 32.6328 11.4453 31.8984C10.7422 31.1641 10.3125 30.2812 10.1563 29.25C8.96876 29.0938 8.00001 28.5781 7.25001 27.7031C6.50001 26.8281 6.12501 25.7969 6.12501 24.6094C6.12501 23.9844 6.2422 23.3828 6.47657 22.8047C6.71095 22.2266 7.04689 21.7188 7.48439 21.2812L18.3594 10.4531L24.5 16.5938C24.5625 16.6875 24.6563 16.7578 24.7813 16.8047C24.9063 16.8516 25.0313 16.875 25.1563 16.875C25.4375 16.875 25.6719 16.7891 25.8594 16.6172C26.0469 16.4453 26.1406 16.2188 26.1406 15.9375C26.1406 15.8125 26.1172 15.6875 26.0703 15.5625C26.0234 15.4375 25.9531 15.3438 25.8594 15.2812L19.1563 8.57812C18.8125 8.20312 18.4141 7.92969 17.9609 7.75781C17.5078 7.58594 17.0313 7.5 16.5313 7.5C16.0625 7.5 15.5938 7.58594 15.125 7.75781C14.6563 7.92969 14.2344 8.20312 13.8594 8.57812L7.25001 15.2344C6.96876 15.5156 6.73439 15.8438 6.54689 16.2188C6.35939 16.5938 6.23439 16.9688 6.17189 17.3438C6.10939 17.7188 6.10939 18.1016 6.17189 18.4922C6.23439 18.8828 6.35939 19.25 6.54689 19.5938L3.82814 22.3125C3.29689 21.5938 2.90626 20.8047 2.65626 19.9453C2.40626 19.0859 2.31251 18.2188 2.37501 17.3438C2.43751 16.4688 2.65626 15.6172 3.03126 14.7891C3.40626 13.9609 3.92189 13.2188 4.57814 12.5625L11.1875 5.95313C11.9375 5.23438 12.7734 4.6875 13.6953 4.3125C14.6172 3.9375 15.5625 3.75 16.5313 3.75C17.5 3.75 18.4453 3.9375 19.3672 4.3125C20.2891 4.6875 21.1094 5.23438 21.8281 5.95313L22.3438 6.46875L22.8594 5.95313C23.6094 5.23438 24.4453 4.6875 25.3672 4.3125C26.2891 3.9375 27.2344 3.75 28.2031 3.75C29.1719 3.75 30.1172 3.9375 31.0391 4.3125C31.961 4.6875 32.7813 5.23438 33.5 5.95313L41.4219 13.875C42.1406 14.5938 42.6875 15.4219 43.0625 16.3594C43.4375 17.2969 43.625 18.25 43.625 19.2188C43.625 20.1875 43.4375 21.1328 43.0625 22.0547C42.6875 22.9766 42.1406 23.7969 41.4219 24.5156L26.0469 39.8438C25.6094 40.2812 25.1016 40.625 24.5235 40.875C23.9453 41.125 23.3438 41.25 22.7188 41.25Z" fill="white"/>
</g>
</svg>
