<svg width="46" height="45" viewBox="0 0 46 45" fill="none" xmlns="http://www.w3.org/2000/svg">
<mask id="mask0_2_76" style="mask-type:alpha" maskUnits="userSpaceOnUse" x="0" y="0" width="46" height="45">
<rect x="0.5" width="45" height="45" fill="#D9D9D9"/>
</mask>
<g mask="url(#mask0_2_76)">
<path d="M15.5 31.875C16.0312 31.875 16.4766 31.6953 16.8359 31.3359C17.1953 30.9766 17.375 30.5312 17.375 30C17.375 29.4688 17.1953 29.0234 16.8359 28.6641C16.4766 28.3047 16.0312 28.125 15.5 28.125C14.9688 28.125 14.5234 28.3047 14.1641 28.6641C13.8047 29.0234 13.625 29.4688 13.625 30C13.625 30.5312 13.8047 30.9766 14.1641 31.3359C14.5234 31.6953 14.9688 31.875 15.5 31.875ZM15.5 24.375C16.0312 24.375 16.4766 24.1953 16.8359 23.8359C17.1953 23.4766 17.375 23.0312 17.375 22.5C17.375 21.9688 17.1953 21.5234 16.8359 21.1641C16.4766 20.8047 16.0312 20.625 15.5 20.625C14.9688 20.625 14.5234 20.8047 14.1641 21.1641C13.8047 21.5234 13.625 21.9688 13.625 22.5C13.625 23.0312 13.8047 23.4766 14.1641 23.8359C14.5234 24.1953 14.9688 24.375 15.5 24.375ZM15.5 16.875C16.0312 16.875 16.4766 16.6953 16.8359 16.3359C17.1953 15.9766 17.375 15.5312 17.375 15C17.375 14.4688 17.1953 14.0234 16.8359 13.6641C16.4766 13.3047 16.0312 13.125 15.5 13.125C14.9688 13.125 14.5234 13.3047 14.1641 13.6641C13.8047 14.0234 13.625 14.4688 13.625 15C13.625 15.5312 13.8047 15.9766 14.1641 16.3359C14.5234 16.6953 14.9688 16.875 15.5 16.875ZM21.125 31.875H32.375V28.125H21.125V31.875ZM21.125 24.375H32.375V20.625H21.125V24.375ZM21.125 16.875H32.375V13.125H21.125V16.875ZM9.875 39.375C8.84375 39.375 7.96094 39.0078 7.22656 38.2734C6.49219 37.5391 6.125 36.6562 6.125 35.625V9.375C6.125 8.34375 6.49219 7.46094 7.22656 6.72656C7.96094 5.99219 8.84375 5.625 9.875 5.625H36.125C37.1562 5.625 38.0391 5.99219 38.7734 6.72656C39.5078 7.46094 39.875 8.34375 39.875 9.375V35.625C39.875 36.6562 39.5078 37.5391 38.7734 38.2734C38.0391 39.0078 37.1562 39.375 36.125 39.375H9.875ZM9.875 35.625H36.125V9.375H9.875V35.625Z" fill="white"/>
</g>
</svg>
